<?xml version="1.0" encoding="UTF-8" standalone="no"?>
<svg
   width="348.12225mm"
   height="63.669102mm"
   viewBox="0 0 348.12225 63.669101"
   version="1.1"
   xmlns="http://www.w3.org/2000/svg"
   xmlns:svg="http://www.w3.org/2000/svg">

  <g transform="translate(-15.963712,-93.683456)">
      <path
         d="m 146.66916,95.566324 c -2.64584,2.64585 -0.58209,17.780006 2.38125,17.780006 2.01083,0 2.69874,-2.43417 2.69874,-9.94833 0,-5.820836 -1.16416,-9.101666 -3.17499,-9.101666 -0.37042,0 -1.21709,0.58209 -1.905,1.26999 z" />
      <path
         d="m 126.98415,105.51465 c -1.11124,2.91042 -0.68791,45.93168 0.47625,48.10125 3.06917,5.76792 5.13292,2.48709 4.55084,-7.19667 -0.3175,-5.07999 -0.10584,-16.13958 0.52917,-24.60624 1.11124,-15.9279 0.79375,-17.99166 -3.01625,-17.99166 -1.05834,0 -2.16959,0.74082 -2.54001,1.69332 z" />
      <path
         d="m 168.94707,121.01925 c -1.32291,0.63501 -2.38125,1.58751 -2.38125,2.16957 0,0.58209 -1.00542,0.1587 -2.16958,-0.89958 -4.81542,-4.33917 -5.82083,-1.37583 -5.3975,15.55749 0.37041,15.39876 1.11125,18.89127 3.91583,18.89127 2.06375,0 3.175,-3.22791 4.07458,-11.64168 0.89959,-9.04875 2.80459,-18.30915 3.54542,-17.56833 0.3175,0.31752 1.16417,4.0746 1.905,8.36085 1.85209,10.53039 4.02166,15.55749 6.77335,15.55749 2.22249,0 2.22249,0.0528 4.33917,-11.11251 1.26999,-6.61458 3.01623,-11.05956 3.12207,-7.93749 0.37041,15.29292 4.65666,27.72834 7.72584,22.48959 0.89958,-1.53459 -2.32833,-30.05667 -3.54543,-31.53834 -3.01623,-3.65124 -6.82623,-1.11126 -10.42458,6.87918 l -2.06376,4.70958 -0.74082,-3.1221 c -0.37041,-1.69332 -1.00542,-4.4979 -1.42875,-6.19125 -0.9525,-4.07457 -4.07459,-6.08541 -7.24959,-4.60374 z" />
      <path
         d="m 64.983313,105.09327 c -1.00542,0.74082 -1.85209,2.16957 -1.85209,3.12207 0,1.48167 -0.37041,1.37583 -2.22249,-0.47625 -2.8575,-2.8575 -6.19125,-0.58209 -4.33917,2.91042 4.81542,8.83707 10.05417,9.31332 12.7,1.16415 2.11666,-6.6675 0,-10.00125 -4.28625,-6.72039 z" />
      <path
         d="m 220.02915,101.01867 c -3.22791,1.26999 -3.06918,4.97418 0.2646,6.50874 3.33375,1.53459 3.43959,1.95792 4.23333,22.33083 0.63501,17.25084 1.42875,21.53709 4.28625,22.59543 2.54001,0.9525 2.96334,-0.1587 2.69877,-7.09083 l -0.2118,-6.35001 12.17082,7.40835 c 11.80044,7.24956 16.51002,8.94291 16.51002,6.03249 0,-1.53459 -6.6675,-6.50874 -18.94416,-14.18166 -7.19667,-4.49793 -7.62,-4.97418 -5.82084,-6.29709 14.49915,-10.4775 19.84374,-17.30376 17.30373,-22.11918 -3.70416,-6.93207 -23.70666,-12.382466 -32.49081,-8.83707 z m 19.52625,6.82626 c 9.20748,2.75166 9.2604,3.86292 0.37041,12.22374 -9.7896,9.31332 -9.57792,9.36624 -9.57792,-3.22791 0,-12.06501 -0.2646,-11.80041 9.20751,-8.99583 z" />
      <path
         d="m 62.443313,129.59367 c -1.95792,5.02707 2.54,21.06084 6.19125,22.22499 3.175,1.00542 4.55083,-0.9525 3.175,-4.4979 -0.635,-1.64043 -1.48167,-5.82084 -1.905,-9.31335 -1.00542,-9.15456 -5.34459,-14.0229 -7.46125,-8.41374 z" />
      <path
         d="m 336.23415,128.05908 c -8.36085,12.32958 -9.89544,19.36752 -5.39751,24.18291 9.20751,9.78961 30.42708,-8.09625 25.02957,-21.06081 -3.81,-9.04875 -14.49915,-10.7421 -19.63206,-3.1221 z m 11.37708,2.06376 c 6.34998,4.4979 -3.59835,20.90208 -10.95375,18.04458 -2.54001,-0.9525 -1.00542,-6.72042 2.80458,-10.79499 1.16415,-1.27002 2.27541,-3.65127 2.48709,-5.29167 0.1587,-1.69335 0.37041,-3.17502 0.47625,-3.33375 0.37041,-0.79377 3.12207,-0.0528 5.18583,1.37583 z" />
      <path
         d="m 262.46832,126.78909 c -2.54001,2.16957 -2.75169,2.75166 -1.53459,4.23333 1.79916,2.11668 4.02165,2.16957 6.08541,0.1059 3.43959,-3.49251 6.98499,-1.53459 8.14917,4.4979 1.00542,5.34459 0.2115,6.13833 -5.45043,5.715 -14.76375,-1.00542 -11.43,11.80044 3.70419,14.18169 4.70958,0.79374 8.78415,-0.74085 8.78415,-3.28086 0,-1.11123 -1.32291,-1.53456 -5.07999,-1.53456 -5.29167,0 -10.68918,-2.64585 -8.94291,-4.39209 0.58206,-0.58209 2.80458,-0.1059 5.60916,1.11126 6.24417,2.80458 7.3554,1.69332 7.3554,-6.9321 0,-13.86417 -10.00125,-21.21957 -18.67956,-13.70541 z" />
      <path
         d="m 289.29705,126.10116 c -1.21707,2.11668 1.00542,26.88168 2.48709,27.83418 3.28083,2.11665 4.55082,0.47625 6.77334,-8.78418 2.96334,-12.1179 5.34459,-14.81667 4.39209,-4.92123 -1.58751,16.40415 3.28083,19.63206 9.68373,6.45582 2.69877,-5.55624 3.33375,-6.35001 2.96334,-3.59832 -1.16418,7.67292 4.39209,13.81125 9.89541,10.84791 3.33375,-1.79916 3.01626,-5.715 -0.42333,-5.07999 l -2.69874,0.52914 0.1587,-8.78415 c 0.1587,-10.00125 -0.2115,-11.05959 -4.12749,-11.05959 -3.38667,0.0528 -4.4979,0.68793 -6.87915,4.18041 l -1.79919,2.64585 v -2.38125 c 0,-5.9796 -7.14375,-8.78418 -11.85333,-4.70958 -1.6404,1.42875 -1.95792,1.32291 -3.12207,-1.2171 -1.16418,-2.53998 -4.44501,-3.75708 -5.45043,-1.95792 z" />
      <path
         d="m 358.14165,150.60159 c -0.68793,2.54001 1.69332,4.81542 4.02165,3.91584 2.48709,-0.9525 1.53459,-5.34459 -1.21707,-5.715 -1.53459,-0.2118 -2.43417,0.37041 -2.80458,1.79916 z" />
      <path
         d="m 18.786452,98.367904 c -5.185833,3.174986 0.317499,55.509566 5.767921,54.715826 2.59291,-0.37041 2.69875,-1.2171 1.32291,-12.06501 -0.9525,-7.40832 -1.16417,-7.24956 10.84791,-8.51958 l 6.24417,-0.63498 1.85208,10.42458 c 2.38125,13.49373 2.27542,13.12332 4.81542,13.12332 3.22792,0 3.54542,-2.06376 1.85208,-12.64707 -0.9525,-6.29709 -1.11125,-9.89544 -0.42333,-10.58334 0.68792,-0.68793 0.52917,-1.69335 -0.58208,-2.96334 -1.48167,-1.69332 -5.08,-19.7379 -5.08,-25.40001 0,-2.96331 -3.75708,-5.132906 -5.82084,-3.43956 -1.85208,1.53456 -0.79374,13.44081 2.27542,24.55332 0.42333,1.53459 -0.47625,1.74624 -6.45583,1.74624 -3.86292,0 -7.88458,0.31752 -9.04875,0.68793 -2.06375,0.63501 -2.11667,0.1587 -2.11667,-14.07582 0,-15.557516 -0.79374,-17.780006 -5.450411,-14.922506 z" />
      <path
         d="m 82.215933,98.667454 c -2.59292,4.180406 2.8575,37.994156 5.97958,36.935816 1.79917,-0.63501 1.69333,-32.06748 -0.10584,-35.45415 -1.27,-2.328326 -4.81542,-3.227906 -5.87375,-1.481666 z" />
      <path
         d="m 87.878013,144.96951 c -1.74625,2.06376 -0.10584,5.18583 2.69875,5.18583 3.175,0 4.60375,-3.5454 2.16958,-5.34456 -2.59291,-1.95792 -3.175,-1.905 -4.86833,0.1587 z" />
  </g>
</svg>
